HIERARCHY
ROOT root
{
	OFFSET	0	13.1	24.9
	CHANNELS 6  Xposition Yposition Zposition Xrotation Yrotation Zrotation
	JOINT spine_1
	{
		OFFSET	0	9.99999	0
		CHANNELS 3  Xrotation Yrotation Zrotation
		JOINT spine_2
		{
			OFFSET	0	112	-10
			CHANNELS 3  Xrotation Yrotation Zrotation
			JOINT spine_3
			{
				OFFSET	0	206.5	19.3
				CHANNELS 3  Xrotation Yrotation Zrotation
				JOINT spine_4
				{
					OFFSET	0	110.4	14.6
					CHANNELS 3  Xrotation Yrotation Zrotation
					JOINT neck_1
					{
						OFFSET	0	71.8	-50.3
						CHANNELS 3  Xrotation Yrotation Zrotation
						JOINT neck_2
						{
							OFFSET	0	86.2	-25.8
							CHANNELS 3  Xrotation Yrotation Zrotation
							JOINT head_ee
							{
								OFFSET	0	179.8	-8.7
								CHANNELS 3  Xrotation Yrotation Zrotation
								End Site
								{
									OFFSET	1	0	0
								}
							}
						}
					}
					JOINT left_clavicle
					{
						OFFSET	-43.2	22.4	-70.8
						CHANNELS 3  Xrotation Yrotation Zrotation
						JOINT left_shoulder
						{
							OFFSET	-93.9	-5.79999	48.7
							CHANNELS 3  Xrotation Yrotation Zrotation
							JOINT left_elbow
							{
								OFFSET	-291.4	-30.8	15.2
								CHANNELS 3  Xrotation Yrotation Zrotation
								JOINT left_lowarm_twist
								{
									OFFSET	-110.7	-3.89999	13.6
									CHANNELS 3  Xrotation Yrotation Zrotation
									JOINT left_hand
									{
										OFFSET	-110.7	-3.89999	13.6
										CHANNELS 3  Xrotation Yrotation Zrotation
										JOINT left_ee
										{
											OFFSET	-80.8	-5.10001	12.1
											CHANNELS 3  Xrotation Yrotation Zrotation
											End Site
											{
												OFFSET	1	0	0
											}
										}
									}
								}
							}
						}
					}
					JOINT right_clavicle
					{
						OFFSET	43.2	22.4	-70.8
						CHANNELS 3  Xrotation Yrotation Zrotation
						JOINT right_shoulder
						{
							OFFSET	93.9	-5.79999	48.7
							CHANNELS 3  Xrotation Yrotation Zrotation
							JOINT right_elbow
							{
								OFFSET	291.4	-30.8	15.2
								CHANNELS 3  Xrotation Yrotation Zrotation
								JOINT right_lowarm_twist
								{
									OFFSET	110.7	-3.89999	13.6
									CHANNELS 3  Xrotation Yrotation Zrotation
									JOINT right_hand
									{
										OFFSET	110.7	-3.89999	13.6
										CHANNELS 3  Xrotation Yrotation Zrotation
										JOINT right_ee
										{
											OFFSET	80.8	-5.10001	12.1
											CHANNELS 3  Xrotation Yrotation Zrotation
											End Site
											{
												OFFSET	1	0	0
											}
										}
									}
								}
							}
						}
					}
				}
			}
		}
	}
	JOINT left_hip
	{
		OFFSET	-82.8	-127.5	0.300001
		CHANNELS 3  Xrotation Yrotation Zrotation
		JOINT left_knee
		{
			OFFSET	-28.2	-396.7	2.2
			CHANNELS 3  Xrotation Yrotation Zrotation
			JOINT left_ankle
			{
				OFFSET	-11.7	-411.3	35.4
				CHANNELS 3  Xrotation Yrotation Zrotation
				JOINT left_toes
				{
					OFFSET	0	-60	-88.6
					CHANNELS 3  Xrotation Yrotation Zrotation
					JOINT left_foot_ee
					{
						OFFSET	-22.5	-16.5	-42.2
						CHANNELS 3  Xrotation Yrotation Zrotation
						End Site
						{
							OFFSET	1	0	0
						}
					}
				}
			}
		}
	}
	JOINT right_hip
	{
		OFFSET	82.8	-127.5	0.300001
		CHANNELS 3  Xrotation Yrotation Zrotation
		JOINT right_knee
		{
			OFFSET	28.2	-396.7	2.2
			CHANNELS 3  Xrotation Yrotation Zrotation
			JOINT right_ankle
			{
				OFFSET	11.7	-411.3	35.4
				CHANNELS 3  Xrotation Yrotation Zrotation
				JOINT right_toes
				{
					OFFSET	0	-60	-88.6
					CHANNELS 3  Xrotation Yrotation Zrotation
					JOINT right_foot_ee
					{
						OFFSET	22.5	-16.5	-42.2
						CHANNELS 3  Xrotation Yrotation Zrotation
						End Site
						{
							OFFSET	1	0	0
						}
					}
				}
			}
		}
	}
}
MOTION
Frames: 10
Frame Time: 0.02
1041.4 574.639 -1682.42 2.15008026987 19.9489517497 0.980343805228 -0.499582 0.318124 0.442977 -0.49952 0.289292 0.462322 -0.49707 0.181214 0.514385 -0.497345 0.260177 0.479312 2.44485 4.25208 -4.29155 2.65486 11.0709 -4.44582 -0.0 0.0 -0.0 1.57584 19.0867 4.58311 -19.6364 -30.1765 72.1357 0.482983 -13.4556 0.0569754 -10.7372 -0.4996 1.27664 2.7933 30.0136 27.7248 -0.0 0.0 -0.0 11.6784 21.9951 -23.0422 -0.178091 2.06461 -51.6751 2.62401 52.4195 -1.2919 -9.46152 0.427801 -1.13009 0.798417 3.94267 -3.70754 0.0 0.0 0.0 21.8868 0.174124 -11.033 0.894765 -0.0378777 -0.13208 6.66796 28.6961 -1.02361 -20.0928 0.0 0.0 -0.0 0.0 -0.0 -6.07327 12.185 4.56491 -28.159 -0.110167 -4.27664 36.5441 10.3427 4.72143 14.5091 -0.0 -0.0 0.0 0.0 0.0 
1041.4 574.639 -1682.42 2.15881378215 20.5777673256 0.955127294066 -0.499582 0.318124 0.442977 -0.49952 0.289292 0.462322 -0.49707 0.181214 0.514385 -0.497345 0.260177 0.479312 2.44485 4.25208 -4.29155 2.65486 11.0709 -4.44582 -0.0 0.0 -0.0 1.57584 19.0867 4.58311 -19.6364 -30.1765 72.1357 0.482983 -13.4556 0.0569754 -10.7372 -0.4996 1.27664 2.7933 30.0136 27.7248 -0.0 0.0 -0.0 11.6784 21.9951 -23.0422 -0.178091 2.06461 -51.6751 2.62401 52.4195 -1.2919 -9.46152 0.427801 -1.13009 0.798417 3.94267 -3.70754 0.0 0.0 0.0 21.8868 0.174124 -11.033 0.894765 -0.0378777 -0.13208 6.66796 28.6961 -1.02361 -20.0928 0.0 0.0 -0.0 0.0 -0.0 -6.07327 12.185 4.56491 -28.159 -0.110167 -4.27664 36.5441 10.3427 4.72143 14.5091 -0.0 -0.0 0.0 0.0 0.0 
1023.46792756 574.393 -1698.96001941 1.8962752014 20.7461688164 1.85351297026 -0.445514 0.246656 0.336338 -0.445479 0.224755 0.351352 -0.444035 0.14286 0.391859 -0.444192 0.202954 0.364379 2.8657 3.49365 -3.97357 3.03261 9.4748 -4.18422 -0.0 0.0 -0.0 1.41231 19.279 4.35272 -19.0382 -30.2006 72.1823 0.507893 -14.1224 0.0629127 -10.5145 -0.486828 1.25116 3.12072 29.9514 29.7714 -0.0 0.0 -0.0 12.0079 21.463 -23.8408 -2.99792 1.7434 -51.8964 2.66678 52.8659 -1.32589 -9.19498 0.413213 -1.09927 0.861551 6.27686 -3.15246 0.0 0.0 0.0 21.8018 0.667476 -11.8009 0.00699626 -0.000288087 -0.00103499 6.37894 29.5078 -0.98535 -18.4581 0.0 0.0 -0.0 0.0 -0.0 -6.64644 13.5382 3.70012 -28.2659 -0.106569 -4.29266 37.2809 10.309 4.78981 13.5149 -0.0 -0.0 0.0 0.0 0.0 
1023.31732249 574.393 -1698.79523246 1.90294973035 21.270195352 1.83489529787 -0.445514 0.246656 0.336338 -0.445479 0.224755 0.351352 -0.444035 0.14286 0.391859 -0.444192 0.202954 0.364379 2.8657 3.49365 -3.97357 3.03261 9.4748 -4.18422 -0.0 0.0 -0.0 1.41231 19.279 4.35272 -19.0382 -30.2006 72.1823 0.507893 -14.1224 0.0629127 -10.5145 -0.486828 1.25116 3.12072 29.9514 29.7714 -0.0 0.0 -0.0 12.0079 21.463 -23.8408 -2.99792 1.7434 -51.8964 2.66678 52.8659 -1.32589 -9.19498 0.413213 -1.09927 0.861551 6.27686 -3.15246 0.0 0.0 0.0 21.8018 0.667476 -11.8009 0.00699626 -0.000288087 -0.00103499 6.37894 29.5078 -0.98535 -18.4581 0.0 0.0 -0.0 0.0 -0.0 -6.64644 13.5382 3.70012 -28.2659 -0.106569 -4.29266 37.2809 10.309 4.78981 13.5149 -0.0 -0.0 0.0 0.0 0.0 
1023.12847649 574.393 -1698.58424735 1.91171460141 21.9348625817 1.81108882677 -0.445514 0.246656 0.336338 -0.445479 0.224755 0.351352 -0.444035 0.14286 0.391859 -0.444192 0.202954 0.364379 2.8657 3.49365 -3.97357 3.03261 9.4748 -4.18422 -0.0 0.0 -0.0 1.41231 19.279 4.35272 -19.0382 -30.2006 72.1823 0.507893 -14.1224 0.0629127 -10.5145 -0.486828 1.25116 3.12072 29.9514 29.7714 -0.0 0.0 -0.0 12.0079 21.463 -23.8408 -2.99792 1.7434 -51.8964 2.66678 52.8659 -1.32589 -9.19498 0.413213 -1.09927 0.861551 6.27686 -3.15246 0.0 0.0 0.0 21.8018 0.667476 -11.8009 0.00699626 -0.000288087 -0.00103499 6.37894 29.5078 -0.98535 -18.4581 0.0 0.0 -0.0 0.0 -0.0 -6.64644 13.5382 3.70012 -28.2659 -0.106569 -4.29266 37.2809 10.309 4.78981 13.5149 -0.0 -0.0 0.0 0.0 0.0 
1023.03101991 574.393 -1698.47341192 1.91641773156 22.2813010344 1.79859235599 -0.445514 0.246656 0.336338 -0.445479 0.224755 0.351352 -0.444035 0.14286 0.391859 -0.444192 0.202954 0.364379 2.8657 3.49365 -3.97357 3.03261 9.4748 -4.18422 -0.0 0.0 -0.0 1.41231 19.279 4.35272 -19.0382 -30.2006 72.1823 0.507893 -14.1224 0.0629127 -10.5145 -0.486828 1.25116 3.12072 29.9514 29.7714 -0.0 0.0 -0.0 12.0079 21.463 -23.8408 -2.99792 1.7434 -51.8964 2.66678 52.8659 -1.32589 -9.19498 0.413213 -1.09927 0.861551 6.27686 -3.15246 0.0 0.0 0.0 21.8018 0.667476 -11.8009 0.00699626 -0.000288087 -0.00103499 6.37894 29.5078 -0.98535 -18.4581 0.0 0.0 -0.0 0.0 -0.0 -6.64644 13.5382 3.70012 -28.2659 -0.106569 -4.29266 37.2809 10.309 4.78981 13.5149 -0.0 -0.0 0.0 0.0 0.0 
996.850779973 577.71 -1711.13825327 1.60787373829 21.3756085251 1.8732209254 -0.184037 0.23984 0.226643 -0.184037 0.224932 0.241446 -0.183059 0.168258 0.283865 -0.183109 0.210978 0.25373 3.48064 3.19389 -4.1156 3.64952 9.07357 -4.42004 -0.0 0.0 -0.0 1.58026 18.682 4.56164 -17.4331 -30.3825 72.6447 0.47247 -13.173 0.0545542 -11.2769 -0.530958 1.33816 2.96966 30.187 28.8509 -0.0 0.0 -0.0 11.8203 20.9921 -23.4483 -4.31661 1.56212 -52.565 2.4153 50.1038 -1.12907 -9.09066 0.407544 -1.08719 0.669891 3.98082 -2.82503 0.0 0.0 0.0 22.23 1.08657 -11.5208 -2.48851 0.0944326 0.370199 3.33981 28.7282 -0.517223 -17.0922 0.0 0.0 -0.0 0.0 -0.0 -8.32888 14.763 4.73066 -25.4418 -0.1915 -3.86761 34.9859 8.43282 4.53081 13.0466 -0.0 -0.0 0.0 0.0 0.0 
978.536684649 578.155 -1725.00984465 1.4183779919 21.6037311468 2.22458819632 -0.169874 0.185592 0.176992 -0.169873 0.173953 0.188443 -0.169284 0.12981 0.221179 -0.169314 0.163112 0.197902 2.8125 3.37329 -3.43174 2.9487 8.80488 -3.58127 -0.0 0.0 -0.0 1.39163 18.7243 4.28066 -16.9363 -30.5782 71.7057 0.616086 -16.9718 0.0919209 -10.6352 -0.493738 1.26497 3.11527 29.995 29.7429 -0.0 0.0 -0.0 11.7585 20.8974 -23.3143 -7.52845 1.35016 -53.4561 2.45343 50.5445 -1.15841 -8.6756 0.385202 -1.03903 0.906781 7.2556 -3.0437 0.0 0.0 0.0 22.1298 1.48051 -11.653 -3.84626 0.139143 0.573772 1.96641 28.6988 -0.305462 -17.6809 0.0 0.0 -0.0 0.0 -0.0 -9.19305 15.2896 5.01909 -24.9574 -0.203954 -3.79432 35.5197 10.3106 4.62245 11.9195 -0.0 -0.0 0.0 0.0 0.0 
945.881629879 580.999 -1740.78512288 3.29690499354 22.9640183179 0.426305629951 -0.130341 -0.0328168 0.11064 -0.130335 -0.0397906 0.108328 -0.13041 -0.0618917 0.0974044 -0.13042 -0.0457317 0.105957 1.67696 3.28073 -2.21546 1.75522 7.63121 -2.15304 -0.0 0.0 -0.0 2.07321 21.8971 5.47757 -16.3034 -31.3794 69.8379 0.583719 -16.1278 0.0827008 -12.9917 -0.634425 1.53164 2.75433 30.0031 27.4819 -0.0 0.0 -0.0 11.6907 21.8242 -23.0848 -9.45753 0.907943 -53.8231 2.03458 45.2193 -0.847388 -7.23543 0.31041 -0.870713 0.704418 7.5026 -1.57166 0.0 0.0 0.0 20.6016 0.280139 -9.71596 -10.7261 0.290892 1.618 12.3507 28.6729 -1.8637 -15.278 0.0 0.0 -0.0 0.0 -0.0 -12.1814 17.7871 6.49759 -25.1745 -0.198449 -3.82718 33.3708 2.02098 4.27667 11.5564 -0.0 -0.0 0.0 0.0 0.0 
907.9994922 593.201 -1760.6624439 4.57437567423 26.4565771679 -0.297894002434 -0.158669 -0.311609 -0.3552 -0.158645 -0.288375 -0.374309 -0.15669 -0.202103 -0.427108 -0.156845 -0.267019 -0.38983 0.793074 2.70466 0.39159 0.807904 4.46798 0.68569 -0.0 0.0 -0.0 2.37246 21.4206 5.88223 -13.7603 -32.4821 67.9694 0.774 -20.9776 0.143298 -18.001 -0.96933 2.07821 1.27113 29.4885 18.5938 -0.0 0.0 -0.0 10.6127 23.8043 -20.4616 -13.3707 -0.416871 -56.0165 1.59027 38.2272 -0.551132 -6.33203 0.265666 -0.764203 1.15484 8.90661 -4.01792 0.0 0.0 0.0 19.3964 -4.38958 -6.43686 -17.2193 0.318377 2.61336 20.2118 29.0448 -2.97138 -16.8125 0.0 0.0 -0.0 0.0 -0.0 -10.3075 21.4293 6.22978 -29.7226 -0.0545897 -4.51018 32.7326 0.0562291 4.19508 10.9794 -0.0 -0.0 0.0 0.0 0.0 
